<?xml version="1.0" encoding="UTF-8"?>
<svg width="120" height="39" viewBox="0 0 120 39" fill="none" xmlns="http://www.w3.org/2000/svg">
<path d="M0.450622 37.6963V33.1919L3.60361 32.4565V17.3068L0 16.5724V12.0439H10.7401L10.9772 15.1974L11.0248 15.8135C11.625 14.375 12.3681 13.3083 13.253 12.6129C14.1384 11.9174 15.2287 11.5697 16.5248 11.5697C16.8883 11.5697 17.3113 11.6015 17.7932 11.6645C18.2751 11.7275 18.7375 11.8222 19.1804 11.9487L18.398 18.9429L14.8891 18.777C13.9883 18.7457 13.2693 18.8758 12.7316 19.1682C12.1944 19.4606 11.6962 19.9067 11.2379 20.5074V32.4565L14.3913 33.1919V37.6963H0.450622Z" fill="#CC3E49"/>
<path fill-rule="evenodd" clip-rule="evenodd" d="M24.9153 27.2155C25.467 27.0677 26.0351 27.3955 26.1829 27.9477C26.3307 28.4994 26.0029 29.0679 25.4507 29.2153C24.8989 29.3631 24.3309 29.0353 24.1831 28.4831C24.0348 27.9313 24.3631 27.3633 24.9153 27.2155Z" fill="#CC3E49"/>
<path fill-rule="evenodd" clip-rule="evenodd" d="M29.7281 28.1802C30.2798 28.0319 30.8479 28.3602 30.9961 28.9124C31.1439 29.4641 30.8157 30.0322 30.2639 30.18C29.7122 30.3278 29.1441 30 28.9959 29.4478C28.8481 28.896 29.1763 28.328 29.7281 28.1802Z" fill="#CC3E49"/>
<path fill-rule="evenodd" clip-rule="evenodd" d="M33.21 23.9473C33.7617 23.7995 34.3298 24.1273 34.4781 24.6795C34.6258 25.2312 34.2976 25.7993 33.7459 25.9471C33.1941 26.0949 32.6261 25.7671 32.4778 25.2149C32.33 24.6632 32.6582 24.0947 33.21 23.9473Z" fill="#CC3E49"/>
<path fill-rule="evenodd" clip-rule="evenodd" d="M36.6472 19.554C37.1989 19.4062 37.767 19.7344 37.9148 20.2862C38.0626 20.8379 37.7348 21.4065 37.1826 21.5543C36.6309 21.702 36.0628 21.3738 35.915 20.8221C35.7668 20.2703 36.095 19.7018 36.6472 19.554Z" fill="#CC3E49"/>
<path fill-rule="evenodd" clip-rule="evenodd" d="M26.8691 22.7768C27.4209 22.629 27.989 22.9573 28.1372 23.509C28.285 24.0607 27.9568 24.6293 27.405 24.7766C26.8533 24.9244 26.2848 24.5966 26.1374 24.0449C25.9892 23.4931 26.3174 22.9246 26.8691 22.7768Z" fill="#CC3E49"/>
<path fill-rule="evenodd" clip-rule="evenodd" d="M29.1241 18.2579C29.6758 18.1101 30.2439 18.4383 30.3921 18.9901C30.5399 19.5418 30.2117 20.1099 29.6599 20.2581C29.1082 20.4059 28.5401 20.0777 28.3919 19.5259C28.2441 18.9742 28.5723 18.4061 29.1241 18.2579Z" fill="#CC3E49"/>
<path fill-rule="evenodd" clip-rule="evenodd" d="M39.4176 15.1575C36.4895 16.2324 33.8402 18.6065 31.4841 22.2255C31.4356 22.2999 31.3404 22.3289 31.2588 22.2935C31.1772 22.2582 31.1328 22.1693 31.1532 22.0832C31.2588 21.6448 32.2068 19.4475 32.365 17.7098C32.4443 16.8376 32.3346 16.0773 31.7344 15.7985C27.5641 17.8979 23.6808 22.2278 22.843 26.4865C21.5342 33.1425 26.02 33.6207 31.3908 30.9836C36.3163 28.5655 40.0555 23.5919 40.5927 19.6673C40.8588 17.7252 40.5523 16.0682 39.4176 15.1575ZM34.2278 12.9243C35.1675 11.9156 37.2121 9.3461 38.4919 6.80466C38.5227 6.74346 38.5531 6.68271 38.583 6.62197C38.6098 6.56756 38.6614 6.52994 38.7213 6.52132C38.7811 6.51271 38.8414 6.53447 38.8822 6.57935C39.3165 7.05899 39.501 7.69094 39.5767 8.07447C39.8569 7.84055 40.3189 7.47198 40.7015 7.24803C40.9028 7.13016 41.0868 7.05309 41.2192 7.03813C41.3139 7.02725 41.3924 7.04448 41.4527 7.07939C41.5347 7.12699 41.5955 7.21086 41.62 7.3328C41.6426 7.44342 41.6349 7.59801 41.6014 7.77255C41.5302 8.14565 41.3461 8.62936 41.2219 8.9331C41.6449 8.89819 42.441 8.86691 43.2842 9.00518C44.1287 9.14345 45.0177 9.45354 45.642 10.0855C45.6882 10.1322 45.7055 10.2006 45.6878 10.2641C45.6697 10.3276 45.6189 10.3761 45.5545 10.391C44.3604 10.6762 42.926 11.0017 41.8711 11.6214C41.2813 11.9682 40.8112 12.4066 40.59 12.9919C40.9186 13.165 41.2206 13.369 41.493 13.6025C43.5983 15.3787 45.2014 17.7937 45.9675 20.6547C47.9636 28.1045 43.5362 35.7727 36.0865 37.7693C30.5317 39.2576 24.8558 37.1749 21.4993 32.9307L21.4952 32.9258C20.472 31.6913 20.0695 29.8607 20.5255 27.5423C21.7509 21.3111 28.09 14.9616 34.2278 12.9248" fill="#CC3E49"/>
<path d="M48.7437 37.6963V33.1919L51.9443 32.4565V17.3068L48.2695 16.5719V12.0435H59.0332L59.3179 15.434C60.1557 14.2172 61.183 13.2684 62.4002 12.5888C63.6174 11.9093 65.0318 11.5693 66.6444 11.5693C68.2569 11.5693 69.6437 11.9206 70.8051 12.6242C71.9666 13.3273 72.8402 14.4063 73.425 15.8602C74.2152 14.501 75.2307 13.4461 76.4715 12.6954C77.7123 11.9442 79.1702 11.5693 80.8453 11.5693C83.3586 11.5693 85.3343 12.4188 86.7727 14.118C88.2112 15.8171 88.9302 18.4129 88.9302 21.9064V32.4565L92.1308 33.1919V37.6963H78.6171V33.1919L81.32 32.4565V21.9064C81.32 20.215 81.0511 19.0494 80.5139 18.4093C79.9762 17.7692 79.1861 17.4491 78.1429 17.4491C77.2421 17.4491 76.4597 17.6703 75.7955 18.1133C75.1318 18.5557 74.61 19.1564 74.2311 19.9153V32.457L76.6968 33.1923V37.6967H64.1787V33.1923L66.6444 32.457V21.9068C66.6444 20.2313 66.3719 19.0698 65.8265 18.4215C65.2812 17.7733 64.4792 17.4491 63.4202 17.4491C62.5666 17.4491 61.8158 17.6191 61.1676 17.9587C60.5197 18.2987 59.9662 18.7847 59.5079 19.4171V32.4565L62.2347 33.1919V37.6963H48.7446H48.7437Z" fill="#CC3E49"/>
<path d="M101.08 7.42075L97.168 6.37761C97.168 5.28687 97.4286 4.27955 97.9504 3.35473C98.4722 2.43036 99.1554 1.69142 100.001 1.13789C100.846 0.584811 101.751 0.307819 102.716 0.307819C103.506 0.307819 104.312 0.493689 105.134 0.864976C105.956 1.23626 106.738 1.61163 107.481 1.99108C108.224 2.37052 108.864 2.56818 109.401 2.58405C110.05 2.55231 110.552 2.29935 110.907 1.82515C111.263 1.35096 111.441 0.742574 111.441 0L115.352 1.11431C115.352 2.23679 115.095 3.2559 114.582 4.17256C114.068 5.08921 113.388 5.82045 112.543 6.36537C111.697 6.91074 110.776 7.1832 109.78 7.1832C108.943 7.1832 108.109 6.9937 107.279 6.61425C106.449 6.23481 105.679 5.85173 104.968 5.46413C104.256 5.07697 103.632 4.8834 103.095 4.8834C102.447 4.8834 101.948 5.13591 101.601 5.64184C101.253 6.14777 101.079 6.74028 101.079 7.41984M105.466 32.6936C106.256 32.6936 107.019 32.5236 107.754 32.1841C108.489 31.8441 109.093 31.374 109.568 30.7733V26.885H106.557C105.245 26.885 104.237 27.1815 103.534 27.774C102.831 28.3665 102.479 29.1136 102.479 30.0144C102.479 30.8522 102.752 31.5082 103.297 31.9823C103.842 32.4561 104.565 32.6936 105.466 32.6936ZM103.285 38.1945C100.756 38.1945 98.7288 37.4991 97.2038 36.1082C95.6787 34.7174 94.9158 32.8523 94.9158 30.5131C94.9158 28.9169 95.3464 27.502 96.2078 26.2693C97.0691 25.0367 98.3612 24.0724 100.084 23.377C101.807 22.6816 103.949 22.3339 106.509 22.3339H109.567V20.627C109.567 19.505 109.239 18.5684 108.584 17.8177C107.928 17.067 106.928 16.6916 105.584 16.6916C104.936 16.6916 104.348 16.7745 103.818 16.9405C103.289 17.1064 102.81 17.3317 102.384 17.6159L101.839 20.9353H96.4095L96.3148 14.0599C97.7056 13.3486 99.1917 12.7561 100.772 12.2819C102.353 11.8077 104.115 11.5706 106.059 11.5706C109.473 11.5706 112.18 12.3608 114.179 13.9412C116.178 15.522 117.178 17.7819 117.178 20.7218V30.7266C117.178 31.0902 117.183 31.442 117.19 31.7815C117.198 32.1211 117.234 32.4493 117.297 32.7653L120 33.1919V37.6963H110.872C110.683 37.3327 110.481 36.9061 110.268 36.416C110.054 35.926 109.908 35.4359 109.829 34.9463C109.039 35.9418 108.123 36.7325 107.079 37.3168C106.036 37.9016 104.772 38.194 103.286 38.194" fill="#CC3E49"/>
</svg>
